<svg id="圖層_1" data-name="圖層 1" xmlns="http://www.w3.org/2000/svg" viewBox="0 0 117.25 142.72"><defs><style>.cls-1{fill:#fff;}</style></defs><title>create project</title><path class="cls-1" d="M96,42.7h21.28c0-2.68-.6-23.34-20.91-25H96Z" transform="translate(0)"/><path class="cls-1" d="M94.68,47.7A3.76,3.76,0,0,1,91,44V17.72H53.88A27.91,27.91,0,1,0,18.56,54.2v81.54a7,7,0,0,0,7,7h84.74a7,7,0,0,0,7-7v-88ZM30.86,39.48a2.5,2.5,0,0,1-5,0V27.92H16a2.5,2.5,0,0,1,0-5h9.82V11.59a2.5,2.5,0,0,1,5,0V22.92h9.82a2.5,2.5,0,0,1,0,5H30.86Zm8.23,38.24H95.53a2.5,2.5,0,0,1,0,5H39.09a2.5,2.5,0,0,1,0-5Zm57,29.4H39.69a2.5,2.5,0,0,1,0-5H96.12a2.5,2.5,0,0,1,0,5Z" transform="translate(0)"/></svg>