<?xml version="1.0" encoding="utf-8"?>
<!-- Generator: Adobe Illustrator 24.1.3, SVG Export Plug-In . SVG Version: 6.00 Build 0)  -->
<svg version="1.1" id="圖層_1" xmlns="http://www.w3.org/2000/svg" xmlns:xlink="http://www.w3.org/1999/xlink" x="0px" y="0px"
	 viewBox="0 0 32.38 32.86" style="enable-background:new 0 0 32.38 32.86;" xml:space="preserve">
<style type="text/css">
	.st0{stroke:#000000;stroke-linejoin:round;stroke-miterlimit:10;}
	.st1{fill:none;stroke:#000000;stroke-width:3;stroke-linecap:round;stroke-linejoin:round;stroke-miterlimit:10;}
</style>
<g>
	<path class="st0" d="M29.49,16.43c0-0.96-0.11-1.9-0.3-2.8l2.69-0.52c-0.42-1.59-1.03-3.15-1.89-4.65s-1.91-2.81-3.08-3.96
		l-1.8,2.08c-1.38-1.25-3.02-2.22-4.84-2.81l0.89-2.59c-1.59-0.43-3.25-0.68-4.97-0.68s-3.38,0.25-4.97,0.68l0.9,2.59
		C10.3,4.35,8.66,5.32,7.27,6.58L5.47,4.5C4.3,5.66,3.26,6.97,2.39,8.46s-1.48,3.06-1.89,4.65l2.69,0.52c-0.19,0.9-0.3,1.84-0.3,2.8
		c0,0.96,0.11,1.89,0.3,2.8L0.5,19.75c0.42,1.59,1.03,3.15,1.89,4.65s1.91,2.81,3.08,3.96l1.8-2.08c1.38,1.25,3.02,2.23,4.84,2.81
		l-0.9,2.59c1.59,0.43,3.25,0.68,4.97,0.68s3.38-0.25,4.97-0.68l-0.89-2.59c1.82-0.59,3.46-1.56,4.84-2.81l1.8,2.08
		c1.17-1.16,2.21-2.47,3.08-3.96s1.48-3.06,1.89-4.65l-2.69-0.52C29.39,18.32,29.49,17.39,29.49,16.43z M16.19,27.15
		c-5.92,0-10.72-4.8-10.72-10.72s4.8-10.72,10.72-10.72c5.92,0,10.72,4.8,10.72,10.72S22.11,27.15,16.19,27.15z"/>
	<polyline class="st1" points="10.52,17.82 14.41,20.97 22.65,12.93 	"/>
</g>
</svg>
