<?xml version="1.0" encoding="utf-8"?>
<!-- Generator: Adobe Illustrator 24.1.3, SVG Export Plug-In . SVG Version: 6.00 Build 0)  -->
<svg version="1.1" id="圖層_1" xmlns="http://www.w3.org/2000/svg" xmlns:xlink="http://www.w3.org/1999/xlink" x="0px" y="0px"
	 viewBox="0 0 32.4 32.9" style="enable-background:new 0 0 32.4 32.9;" xml:space="preserve">
<style type="text/css">
	.st0{fill:#FFFFFF;stroke:#FFFFFF;stroke-linejoin:round;stroke-miterlimit:10;}
	.st1{fill:none;stroke:#FFFFFF;stroke-width:3;stroke-linecap:round;stroke-linejoin:round;stroke-miterlimit:10;}
</style>
<g>
	<path class="st0" d="M29.5,16.4c0-1-0.1-1.9-0.3-2.8l2.7-0.5c-0.4-1.6-1-3.1-1.9-4.6s-1.9-2.8-3.1-4l-1.8,2.1
		c-1.4-1.2-3-2.2-4.8-2.8l0.9-2.6c-1.6-0.4-3.2-0.7-5-0.7s-3.4,0.2-5,0.7l0.9,2.6c-1.8,0.6-3.5,1.5-4.9,2.8L5.5,4.5
		C4.3,5.7,3.3,7,2.4,8.5s-1.5,3.1-1.9,4.7l2.7,0.5c-0.2,0.9-0.3,1.8-0.3,2.8s0.1,1.9,0.3,2.8l-2.7,0.5c0.4,1.6,1,3.1,1.9,4.6
		s1.9,2.8,3.1,4l1.8-2.1c1.4,1.2,3,2.2,4.8,2.8l-0.9,2.6c1.6,0.4,3.2,0.7,5,0.7s3.4-0.2,5-0.7l-0.9-2.6c1.8-0.6,3.5-1.6,4.8-2.8
		l1.8,2.1c1.2-1.2,2.2-2.5,3.1-4s1.5-3.1,1.9-4.6l-2.7-0.5C29.4,18.3,29.5,17.4,29.5,16.4z M16.2,27.1c-5.9,0-10.7-4.8-10.7-10.7
		S10.3,5.7,16.2,5.7s10.7,4.8,10.7,10.7S22.1,27.1,16.2,27.1z"/>
	<polyline class="st1" points="10.5,17.8 14.4,21 22.6,12.9 	"/>
</g>
</svg>
