<?xml version="1.0" encoding="utf-8"?>
<!-- Generator: Adobe Illustrator 24.1.3, SVG Export Plug-In . SVG Version: 6.00 Build 0)  -->
<svg version="1.1" id="圖層_1" xmlns="http://www.w3.org/2000/svg" xmlns:xlink="http://www.w3.org/1999/xlink" x="0px" y="0px"
	 viewBox="0 0 41 41" style="enable-background:new 0 0 41 41;" xml:space="preserve">
<style type="text/css">
	.st0{fill:#B84618;stroke:#FFFFFF;stroke-miterlimit:10;}
	.st1{fill:#FFFFFF;}
</style>
<g>
	<circle class="st0" cx="20.5" cy="20.5" r="20"/>
	<g>
		<g>
			<g>
				<path class="st1" d="M28.39,15.59c-0.05,3.41-2.11,6.6-5.36,7.77c-3.21,1.16-6.84,0.12-8.99-2.52c-2.16-2.67-2.43-6.53-0.7-9.48
					c1.71-2.91,5.13-4.53,8.47-3.88C25.67,8.23,28.34,11.71,28.39,15.59c0.01,0.64,1.01,0.64,1,0c-0.05-3.79-2.31-7.27-5.88-8.66
					c-3.61-1.41-7.83-0.22-10.24,2.79c-2.4,2.99-2.73,7.29-0.79,10.6c1.92,3.28,5.74,5.05,9.48,4.36c4.35-0.8,7.37-4.75,7.43-9.1
					C29.4,14.94,28.4,14.94,28.39,15.59z"/>
			</g>
		</g>
		<g>
			<g>
				<path class="st1" d="M8.09,35.37c0.78-2.34,0.91-5,2.2-7.14c1.3-2.17,3.41-3.73,5.34-5.29c0.5-0.41-0.21-1.11-0.71-0.71
					c-2.01,1.63-4.15,3.25-5.5,5.5c-1.34,2.23-1.49,4.96-2.3,7.38C6.92,35.71,7.89,35.98,8.09,35.37L8.09,35.37z"/>
			</g>
		</g>
		<g>
			<g>
				<path class="st1" d="M33.87,34.69c-0.81-2.43-0.96-5.16-2.3-7.38c-1.35-2.25-3.49-3.87-5.5-5.5c-0.5-0.4-1.21,0.3-0.71,0.71
					c1.94,1.57,4.04,3.12,5.34,5.29c1.29,2.14,1.42,4.81,2.2,7.14C33.11,35.56,34.08,35.3,33.87,34.69L33.87,34.69z"/>
			</g>
		</g>
	</g>
</g>
</svg>
