<?xml version="1.0" encoding="utf-8"?>
<!-- Generator: Adobe Illustrator 21.1.0, SVG Export Plug-In . SVG Version: 6.00 Build 0)  -->
<svg version="1.1" id="圖層_1" xmlns="http://www.w3.org/2000/svg" xmlns:xlink="http://www.w3.org/1999/xlink" x="0px" y="0px"
	 viewBox="0 0 62 61" style="enable-background:new 0 0 62 61;" xml:space="preserve">
<style type="text/css">
	.st0{fill:none;stroke:#FF5C1B;stroke-width:0.5941;stroke-miterlimit:10;}
	.st1{fill:#FF5C1B;}
	.st2{fill:none;stroke:#FF5C1B;stroke-width:2.9705;stroke-linecap:round;stroke-miterlimit:10;}
</style>
<g>
	<path class="st0" d="M22,39.9c-1.4-2-2.1-4.4-2.1-7c0-2.6,0.8-5.1,2.2-7.1"/>
	<path class="st0" d="M39.5,43.2c-2,1.4-4.5,2.2-7.1,2.2c-2.6,0-5-0.8-7-2.1"/>
	<path class="st0" d="M42.7,25.9c1.4,2,2.2,4.4,2.2,7c0,2.5-0.8,4.9-2.1,6.9"/>
	<path class="st0" d="M25.4,22.5c2-1.3,4.4-2.1,7-2.1c2.6,0,5,0.8,7,2.1"/>
	<path class="st1" d="M39.1,26.2c-3.7-3.7-9.7-3.7-13.4,0s-3.7,9.7,0,13.4s9.7,3.7,13.4,0S42.8,29.9,39.1,26.2z M32.3,40.2
		c-3.9,0-7-3.1-7-7s3.1-7,7-7s7,3.1,7,7S36.2,40.2,32.3,40.2z"/>
	<ellipse transform="matrix(0.7071 -0.7071 0.7071 0.7071 -13.7711 32.5129)" class="st1" cx="32.4" cy="32.9" rx="1.2" ry="1.2"/>
	<g>
		<line class="st2" x1="41.9" y1="23.4" x2="35.4" y2="29.8"/>
		<line class="st2" x1="28.9" y1="36.3" x2="22.5" y2="42.7"/>
		<line class="st2" x1="42" y1="42.4" x2="35.6" y2="35.9"/>
		<line class="st2" x1="29.3" y1="29.6" x2="22.9" y2="23.2"/>
	</g>
</g>
</svg>
