<svg id="圖層_1" data-name="圖層 1" xmlns="http://www.w3.org/2000/svg" viewBox="0 0 101.58 128.67"><defs><style>.cls-1{fill:#fff;}</style></defs><title>member record</title><path class="cls-1" d="M79.61,25.79h22c0-2.4-.4-24.08-21.52-25.77l-.45,0Z"/><path class="cls-1" d="M78.35,30.79A3.8,3.8,0,0,1,74.61,27V0H7.18A7.18,7.18,0,0,0,0,7.18V121.49a7.18,7.18,0,0,0,7.18,7.18H94.4a7.18,7.18,0,0,0,7.18-7.18V30.79ZM50.79,36.36A11.71,11.71,0,1,1,39.08,48.06,11.71,11.71,0,0,1,50.79,36.36Zm17.08,56H33.71a3.41,3.41,0,0,1-3.65-3.07c-.05-7,1.29-24.08,15-27.87a11.66,11.66,0,0,0,11.52,0C69.91,65.07,71.47,82.11,71.53,89.2A3.4,3.4,0,0,1,67.87,92.31Z"/></svg>