<svg id="圖層_1" data-name="圖層 1" xmlns="http://www.w3.org/2000/svg" viewBox="0 0 117.25 142.72"><defs><style>.cls-1{fill:#fff;}</style></defs><title>OK project (W</title><path class="cls-1" d="M96,42.7h21.28v0c0-2.42-.45-23.38-20.91-25H96Z"/><path class="cls-1" d="M94.68,47.7A3.77,3.77,0,0,1,91,44V17.72H53.88A27.9,27.9,0,1,0,18.56,54.2v81.54a7,7,0,0,0,7,7h84.74a7,7,0,0,0,7-7v-88ZM25.06,38.34h-.28A4.85,4.85,0,0,1,21.37,37l-9.17-9a2.5,2.5,0,1,1,3.51-3.57l9.05,8.91L39.9,14.4a2.5,2.5,0,1,1,3.9,3.13l-15.23,19A4.88,4.88,0,0,1,25.06,38.34Zm14,39.38H95.53a2.5,2.5,0,0,1,0,5H39.09a2.5,2.5,0,0,1,0-5Zm57,29.4H39.69a2.5,2.5,0,0,1,0-5H96.12a2.5,2.5,0,0,1,0,5Z"/></svg>