<svg id="圖層_1" data-name="圖層 1" xmlns="http://www.w3.org/2000/svg" viewBox="0 0 117.25 142.72"><defs><style>.cls-1{fill:#fff;}</style></defs><title>past project</title><path class="cls-1" d="M96,42.7h21.27c0-2.68-.6-23.34-20.91-25H96Z"/><path class="cls-1" d="M117.25,42.73s0,0,0,0Z"/><path class="cls-1" d="M94.68,47.7A3.76,3.76,0,0,1,91,44V17.72H53.88A27.91,27.91,0,1,0,18.56,54.2v81.54a7,7,0,0,0,7,7h84.74a7,7,0,0,0,7-7v-88ZM24.5,32.08V21a2,2,0,0,1,4,0v7.09h8.38a2,2,0,0,1,0,4Zm3.73,15.82a2.5,2.5,0,0,1-.08-5c8.84-.28,11.74-5,12.67-7.79A20.82,20.82,0,0,0,41.9,24.29C41.14,18.77,36.48,13,28,13.4c-4.85.23-8.44,1.72-10.68,4.43a11.39,11.39,0,0,0-2,3.62h2.87a2.84,2.84,0,0,1,2.3,4.49l-6.06,8.43a2.88,2.88,0,0,1-4.67,0L3.77,26a2.85,2.85,0,0,1,2.31-4.51h4.08a16.92,16.92,0,0,1,3.32-6.81c3.17-3.84,8-5.94,14.29-6.24,11.08-.53,18,7.25,19.07,15.21a25.79,25.79,0,0,1-1.29,13.08c-1.09,3.24-4.94,10.81-17.25,11.2ZM39.09,77.72H95.53a2.5,2.5,0,0,1,0,5H39.09a2.5,2.5,0,0,1,0-5Zm57,29.4H39.69a2.5,2.5,0,0,1,0-5H96.12a2.5,2.5,0,0,1,0,5Z"/></svg>