<?xml version="1.0" encoding="utf-8"?>
<!-- Generator: Adobe Illustrator 24.1.3, SVG Export Plug-In . SVG Version: 6.00 Build 0)  -->
<svg version="1.1" id="圖層_1" xmlns="http://www.w3.org/2000/svg" xmlns:xlink="http://www.w3.org/1999/xlink" x="0px" y="0px"
	 viewBox="0 0 30.2 41.2" style="enable-background:new 0 0 30.2 41.2;" xml:space="preserve">
<style type="text/css">
	.st0{fill:#FFFFFF;}
	.st1{fill:#FFFFFF;stroke:#FFFFFF;stroke-linecap:round;stroke-linejoin:round;stroke-miterlimit:10;}
	.st2{stroke:#000000;stroke-linecap:round;stroke-linejoin:round;stroke-miterlimit:10;}
</style>
<g>
	<path class="st0" d="M25.6,31.5c0-2.8-4.7-5-10.5-5s-10.5,2.2-10.5,5c0,0,0,0,0,0.1h0v9.6h21V31.5L25.6,31.5
		C25.6,31.6,25.6,31.5,25.6,31.5z"/>
	<path class="st0" d="M15.2,12.3c0-0.2-0.2-0.4-0.4-0.4c-3.9-0.1-7.3-2.3-9.3-2.3C3.5,9.7,1,10,0.1,12.1c-0.7,1.5,2.9,3.3,4.5,4
		c0.3,0.1,0.6-0.1,0.5-0.4c-0.2-1.1-0.1-3.2,3.5-1.4c3.6,1.7,5.5,2.1,6.3,2.1c0.2,0,0.4-0.1,0.4-0.4V12.3z"/>
	<path class="st0" d="M15,12.3c0-0.2,0.2-0.4,0.4-0.4c3.9-0.1,7.3-2.3,9.3-2.3c2.1,0,4.5,0.3,5.5,2.5c0.7,1.5-2.9,3.3-4.5,4
		c-0.3,0.1-0.6-0.1-0.5-0.4c0.2-1.1,0.1-3.2-3.5-1.4c-3.6,1.7-5.5,2.1-6.3,2.1c-0.2,0-0.4-0.1-0.4-0.4V12.3z"/>
	<path class="st1" d="M7.4,12.5c-0.6,1.2-0.9,2.5-0.9,3.9c0,4.8,3.9,8.6,8.6,8.6s8.6-3.9,8.6-8.6c0-1.4-0.4-2.8-1-4"/>
	<path class="st2" d="M15.5,13.4"/>
	<path class="st0" d="M24.9,7.9C24.5,6.4,22.9,2,17.6,1V0.5c0-0.3-0.2-0.5-0.5-0.5h-3.7c-0.3,0-0.5,0.2-0.5,0.5V1
		c-5.3,1-7,5.3-7.4,6.9C5.4,8.2,5.6,8.4,5.9,8.4c1.1,0,2.3,0.5,2.9,0.8C9,9.3,9.3,9.4,9.7,9.5c1.3,0.3,4.5,1.1,5.3,1.1
		c0.8,0,4.3-0.8,5.8-1.2c0.4-0.1,0.7-0.2,1.1-0.4c0.6-0.3,1.8-0.7,2.8-0.8C24.8,8.4,25,8.2,24.9,7.9z"/>
	<circle class="st0" cx="15.2" cy="5.8" r="1.4"/>
</g>
</svg>
