<?xml version="1.0" encoding="utf-8"?>
<!-- Generator: Adobe Illustrator 24.1.3, SVG Export Plug-In . SVG Version: 6.00 Build 0)  -->
<svg version="1.1" id="圖層_1" xmlns="http://www.w3.org/2000/svg" xmlns:xlink="http://www.w3.org/1999/xlink" x="0px" y="0px"
	 viewBox="0 0 35.1 26.7" style="enable-background:new 0 0 35.1 26.7;" xml:space="preserve">
<style type="text/css">
	.st0{fill:#FFFFFF;stroke:#FFFFFF;stroke-miterlimit:10;}
	.st1{fill:none;stroke:#FFFFFF;stroke-width:3;stroke-linecap:round;stroke-linejoin:round;stroke-miterlimit:10;}
</style>
<g>
	<path class="st0" d="M5.5,7.8h-5v12h5l9,6.3c0.4,0.3,1,0,1-0.5V1.1c0-0.5-0.6-0.8-1-0.5L5.5,7.8z"/>
	<path class="st1" d="M20.2,9c1.1,0.5,1.9,2.5,1.9,5c0,2.4-0.8,4.4-1.8,4.9"/>
	<path class="st1" d="M24.4,6.2c1.9,0.7,3.3,4,3.3,7.8c0,3.7-1.3,6.9-3.2,7.7"/>
	<path class="st1" d="M28.8,2.9c2.7,1,4.8,5.6,4.8,11.1c0,5.3-1.9,9.8-4.5,11"/>
</g>
</svg>
