<svg id="圖層_1" data-name="圖層 1" xmlns="http://www.w3.org/2000/svg" viewBox="0 0 119.55 135.56"><defs><style>.cls-1,.cls-2{fill:#fff;}.cls-2{stroke:#231815;stroke-linecap:round;stroke-miterlimit:10;stroke-width:11px;}</style></defs><title>Sign out</title><path class="cls-1" d="M3.49,108.91,41,135.16a2.21,2.21,0,0,0,3.48-1.81V31.69a5.37,5.37,0,0,0-2.22-4.35L6.38,1.45A4,4,0,0,0,0,4.71v97.49A8.2,8.2,0,0,0,3.49,108.91Z"/><path class="cls-1" d="M11.76,0H72.34a5.61,5.61,0,0,1,5.61,5.61V43h-18a2.06,2.06,0,0,0-.62.1A10.64,10.64,0,0,0,52,52.46c-.65,5.77,3.69,8.32,6.11,9.29a7.12,7.12,0,0,0,2.63.5H77.95V100a5.16,5.16,0,0,1-5.16,5.16H49V31.3a8.63,8.63,0,0,0-3.58-7Z"/><path class="cls-2" d="M97.41,35.86"/><path class="cls-1" d="M117.84,49.07c-.11-.1-.23-.17-.34-.26l0,0L101.37,32a5.5,5.5,0,0,0-7.92,7.63l7.13,7.4H61.51a5.5,5.5,0,1,0,0,11h40.17l-8.27,8.7a5.5,5.5,0,0,0,8,7.58L118,56.84A5.5,5.5,0,0,0,117.84,49.07Z"/></svg>