<?xml version="1.0" encoding="utf-8"?>
<!-- Generator: Adobe Illustrator 24.1.3, SVG Export Plug-In . SVG Version: 6.00 Build 0)  -->
<svg version="1.1" id="圖層_1" xmlns="http://www.w3.org/2000/svg" xmlns:xlink="http://www.w3.org/1999/xlink" x="0px" y="0px"
	 viewBox="0 0 36.4 28.27" style="enable-background:new 0 0 36.4 28.27;" xml:space="preserve">
<g>
	<path d="M23.7,5.13H9.09V1.05c0-0.97-1.2-1.42-1.84-0.69L0.26,8.3c-0.35,0.4-0.35,0.99,0,1.39l6.99,7.94
		c0.64,0.73,1.84,0.27,1.84-0.69v-4.08H23.7c0.46,0,0.83-0.37,0.83-0.83V5.96C24.53,5.5,24.16,5.13,23.7,5.13z"/>
	<path d="M12.7,23.14h14.61v4.08c0,0.97,1.2,1.42,1.84,0.69l6.99-7.94c0.35-0.4,0.35-0.99,0-1.39l-6.99-7.94
		c-0.64-0.73-1.84-0.27-1.84,0.69v4.08H12.7c-0.46,0-0.83,0.37-0.83,0.83v6.06C11.87,22.77,12.24,23.14,12.7,23.14z"/>
</g>
</svg>
