<?xml version="1.0" encoding="utf-8"?>
<!-- Generator: Adobe Illustrator 24.1.3, SVG Export Plug-In . SVG Version: 6.00 Build 0)  -->
<svg version="1.1" id="圖層_1" xmlns="http://www.w3.org/2000/svg" xmlns:xlink="http://www.w3.org/1999/xlink" x="0px" y="0px"
	 viewBox="0 0 36.4 28.3" style="enable-background:new 0 0 36.4 28.3;" xml:space="preserve">
<style type="text/css">
	.st0{fill:#FFFFFF;}
</style>
<g>
	<path class="st0" d="M23.7,5.1H9.1V1c0-1-1.2-1.4-1.8-0.7l-7,7.9c-0.3,0.4-0.3,1,0,1.4l7,7.9c0.6,0.7,1.8,0.3,1.8-0.7v-4.1h14.6
		c0.5,0,0.8-0.4,0.8-0.8V6C24.5,5.5,24.2,5.1,23.7,5.1z"/>
	<path class="st0" d="M12.7,23.1h14.6v4.1c0,1,1.2,1.4,1.8,0.7l7-7.9c0.3-0.4,0.3-1,0-1.4l-7-7.9c-0.6-0.7-1.8-0.3-1.8,0.7v4.1H12.7
		c-0.5,0-0.8,0.4-0.8,0.8v6.1C11.9,22.8,12.2,23.1,12.7,23.1z"/>
</g>
</svg>
